<svg height="3054" width="720" xmlns="http://www.w3.org/2000/svg">
<rect height="3054" fill="#555" width="720"></rect>
<text fill="#7f7" font-family="Courier New" font-size="12" xml:space="preserve">
<tspan x="10" y="26">141 megabytes installed</tspan>
<tspan x="10" y="42"></tspan>
<tspan x="10" y="58">node_modules</tspan>
<tspan x="10" y="74">└─┬ iron-node@3.0.18 </tspan>
<tspan x="10" y="90">  ├─┬ commander@2.9.0 </tspan>
<tspan x="10" y="106">  │ └── graceful-readlink@1.0.1 </tspan>
<tspan x="10" y="122">  ├── deep-extend@0.4.1 </tspan>
<tspan x="10" y="138">  ├─┬ electron@1.6.6 </tspan>
<tspan x="10" y="154">  │ ├─┬ electron-download@3.3.0 </tspan>
<tspan x="10" y="170">  │ │ ├─┬ debug@2.6.5 </tspan>
<tspan x="10" y="186">  │ │ │ └── ms@0.7.3 </tspan>
<tspan x="10" y="202">  │ │ ├─┬ fs-extra@0.30.0 </tspan>
<tspan x="10" y="218">  │ │ │ └── klaw@1.3.1 </tspan>
<tspan x="10" y="234">  │ │ ├── home-path@1.0.5 </tspan>
<tspan x="10" y="250">  │ │ ├── minimist@1.2.0 </tspan>
<tspan x="10" y="266">  │ │ ├─┬ nugget@2.0.1 </tspan>
<tspan x="10" y="282">  │ │ │ ├─┬ pretty-bytes@1.0.4 </tspan>
<tspan x="10" y="298">  │ │ │ │ ├── get-stdin@4.0.1 </tspan>
<tspan x="10" y="314">  │ │ │ │ └─┬ meow@3.7.0 </tspan>
<tspan x="10" y="330">  │ │ │ │   ├─┬ camelcase-keys@2.1.0 </tspan>
<tspan x="10" y="346">  │ │ │ │   │ └── camelcase@2.1.1 </tspan>
<tspan x="10" y="362">  │ │ │ │   ├── decamelize@1.2.0 </tspan>
<tspan x="10" y="378">  │ │ │ │   ├─┬ loud-rejection@1.6.0 </tspan>
<tspan x="10" y="394">  │ │ │ │   │ ├─┬ currently-unhandled@0.4.1 </tspan>
<tspan x="10" y="410">  │ │ │ │   │ │ └── array-find-index@1.0.2 </tspan>
<tspan x="10" y="426">  │ │ │ │   │ └── signal-exit@3.0.2 </tspan>
<tspan x="10" y="442">  │ │ │ │   ├── map-obj@1.0.1 </tspan>
<tspan x="10" y="458">  │ │ │ │   ├─┬ normalize-package-data@2.3.8 </tspan>
<tspan x="10" y="474">  │ │ │ │   │ ├── hosted-git-info@2.4.2 </tspan>
<tspan x="10" y="490">  │ │ │ │   │ ├─┬ is-builtin-module@1.0.0 </tspan>
<tspan x="10" y="506">  │ │ │ │   │ │ └── builtin-modules@1.1.1 </tspan>
<tspan x="10" y="522">  │ │ │ │   │ └─┬ validate-npm-package-license@3.0.1 </tspan>
<tspan x="10" y="538">  │ │ │ │   │   ├─┬ spdx-correct@1.0.2 </tspan>
<tspan x="10" y="554">  │ │ │ │   │   │ └── spdx-license-ids@1.2.2 </tspan>
<tspan x="10" y="570">  │ │ │ │   │   └── spdx-expression-parse@1.0.4 </tspan>
<tspan x="10" y="586">  │ │ │ │   ├── object-assign@4.1.1 </tspan>
<tspan x="10" y="602">  │ │ │ │   ├─┬ read-pkg-up@1.0.1 </tspan>
<tspan x="10" y="618">  │ │ │ │   │ ├── find-up@1.1.2 </tspan>
<tspan x="10" y="634">  │ │ │ │   │ └─┬ read-pkg@1.1.0 </tspan>
<tspan x="10" y="650">  │ │ │ │   │   ├─┬ load-json-file@1.1.0 </tspan>
<tspan x="10" y="666">  │ │ │ │   │   │ ├─┬ parse-json@2.2.0 </tspan>
<tspan x="10" y="682">  │ │ │ │   │   │ │ └─┬ error-ex@1.3.1 </tspan>
<tspan x="10" y="698">  │ │ │ │   │   │ │   └── is-arrayish@0.2.1 </tspan>
<tspan x="10" y="714">  │ │ │ │   │   │ ├── pify@2.3.0 </tspan>
<tspan x="10" y="730">  │ │ │ │   │   │ └─┬ strip-bom@2.0.0 </tspan>
<tspan x="10" y="746">  │ │ │ │   │   │   └── is-utf8@0.2.1 </tspan>
<tspan x="10" y="762">  │ │ │ │   │   └── path-type@1.1.0 </tspan>
<tspan x="10" y="778">  │ │ │ │   ├─┬ redent@1.0.0 </tspan>
<tspan x="10" y="794">  │ │ │ │   │ ├─┬ indent-string@2.1.0 </tspan>
<tspan x="10" y="810">  │ │ │ │   │ │ └─┬ repeating@2.0.1 </tspan>
<tspan x="10" y="826">  │ │ │ │   │ │   └── is-finite@1.0.2 </tspan>
<tspan x="10" y="842">  │ │ │ │   │ └── strip-indent@1.0.1 </tspan>
<tspan x="10" y="858">  │ │ │ │   └── trim-newlines@1.0.0 </tspan>
<tspan x="10" y="874">  │ │ │ ├─┬ progress-stream@1.2.0 </tspan>
<tspan x="10" y="890">  │ │ │ │ ├── speedometer@0.1.4 </tspan>
<tspan x="10" y="906">  │ │ │ │ └─┬ through2@0.2.3 </tspan>
<tspan x="10" y="922">  │ │ │ │   ├── readable-stream@1.1.14 </tspan>
<tspan x="10" y="938">  │ │ │ │   └─┬ xtend@2.1.2 </tspan>
<tspan x="10" y="954">  │ │ │ │     └── object-keys@0.4.0 </tspan>
<tspan x="10" y="970">  │ │ │ ├─┬ request@2.81.0 </tspan>
<tspan x="10" y="986">  │ │ │ │ ├── aws-sign2@0.6.0 </tspan>
<tspan x="10" y="1002">  │ │ │ │ ├── aws4@1.6.0 </tspan>
<tspan x="10" y="1018">  │ │ │ │ ├── caseless@0.12.0 </tspan>
<tspan x="10" y="1034">  │ │ │ │ ├─┬ combined-stream@1.0.5 </tspan>
<tspan x="10" y="1050">  │ │ │ │ │ └── delayed-stream@1.0.0 </tspan>
<tspan x="10" y="1066">  │ │ │ │ ├── extend@3.0.0 </tspan>
<tspan x="10" y="1082">  │ │ │ │ ├── forever-agent@0.6.1 </tspan>
<tspan x="10" y="1098">  │ │ │ │ ├─┬ form-data@2.1.4 </tspan>
<tspan x="10" y="1114">  │ │ │ │ │ └── asynckit@0.4.0 </tspan>
<tspan x="10" y="1130">  │ │ │ │ ├─┬ har-validator@4.2.1 </tspan>
<tspan x="10" y="1146">  │ │ │ │ │ ├─┬ ajv@4.11.7 </tspan>
<tspan x="10" y="1162">  │ │ │ │ │ │ ├── co@4.6.0 </tspan>
<tspan x="10" y="1178">  │ │ │ │ │ │ └─┬ json-stable-stringify@1.0.1 </tspan>
<tspan x="10" y="1194">  │ │ │ │ │ │   └── jsonify@0.0.0 </tspan>
<tspan x="10" y="1210">  │ │ │ │ │ └── har-schema@1.0.5 </tspan>
<tspan x="10" y="1226">  │ │ │ │ ├─┬ hawk@3.1.3 </tspan>
<tspan x="10" y="1242">  │ │ │ │ │ ├── boom@2.10.1 </tspan>
<tspan x="10" y="1258">  │ │ │ │ │ ├── cryptiles@2.0.5 </tspan>
<tspan x="10" y="1274">  │ │ │ │ │ ├── hoek@2.16.3 </tspan>
<tspan x="10" y="1290">  │ │ │ │ │ └── sntp@1.0.9 </tspan>
<tspan x="10" y="1306">  │ │ │ │ ├─┬ http-signature@1.1.1 </tspan>
<tspan x="10" y="1322">  │ │ │ │ │ ├── assert-plus@0.2.0 </tspan>
<tspan x="10" y="1338">  │ │ │ │ │ ├─┬ jsprim@1.4.0 </tspan>
<tspan x="10" y="1354">  │ │ │ │ │ │ ├── assert-plus@1.0.0 </tspan>
<tspan x="10" y="1370">  │ │ │ │ │ │ ├── extsprintf@1.0.2 </tspan>
<tspan x="10" y="1386">  │ │ │ │ │ │ ├── json-schema@0.2.3 </tspan>
<tspan x="10" y="1402">  │ │ │ │ │ │ └── verror@1.3.6 </tspan>
<tspan x="10" y="1418">  │ │ │ │ │ └─┬ sshpk@1.13.0 </tspan>
<tspan x="10" y="1434">  │ │ │ │ │   ├── asn1@0.2.3 </tspan>
<tspan x="10" y="1450">  │ │ │ │ │   ├── assert-plus@1.0.0 </tspan>
<tspan x="10" y="1466">  │ │ │ │ │   ├── bcrypt-pbkdf@1.0.1 </tspan>
<tspan x="10" y="1482">  │ │ │ │ │   ├─┬ dashdash@1.14.1 </tspan>
<tspan x="10" y="1498">  │ │ │ │ │   │ └── assert-plus@1.0.0 </tspan>
<tspan x="10" y="1514">  │ │ │ │ │   ├── ecc-jsbn@0.1.1 </tspan>
<tspan x="10" y="1530">  │ │ │ │ │   ├─┬ getpass@0.1.7 </tspan>
<tspan x="10" y="1546">  │ │ │ │ │   │ └── assert-plus@1.0.0 </tspan>
<tspan x="10" y="1562">  │ │ │ │ │   ├── jodid25519@1.0.2 </tspan>
<tspan x="10" y="1578">  │ │ │ │ │   ├── jsbn@0.1.1 </tspan>
<tspan x="10" y="1594">  │ │ │ │ │   └── tweetnacl@0.14.5 </tspan>
<tspan x="10" y="1610">  │ │ │ │ ├── is-typedarray@1.0.0 </tspan>
<tspan x="10" y="1626">  │ │ │ │ ├── isstream@0.1.2 </tspan>
<tspan x="10" y="1642">  │ │ │ │ ├── json-stringify-safe@5.0.1 </tspan>
<tspan x="10" y="1658">  │ │ │ │ ├─┬ mime-types@2.1.15 </tspan>
<tspan x="10" y="1674">  │ │ │ │ │ └── mime-db@1.27.0 </tspan>
<tspan x="10" y="1690">  │ │ │ │ ├── oauth-sign@0.8.2 </tspan>
<tspan x="10" y="1706">  │ │ │ │ ├── performance-now@0.2.0 </tspan>
<tspan x="10" y="1722">  │ │ │ │ ├── qs@6.4.0 </tspan>
<tspan x="10" y="1738">  │ │ │ │ ├── safe-buffer@5.0.1 </tspan>
<tspan x="10" y="1754">  │ │ │ │ ├── stringstream@0.0.5 </tspan>
<tspan x="10" y="1770">  │ │ │ │ ├─┬ tough-cookie@2.3.2 </tspan>
<tspan x="10" y="1786">  │ │ │ │ │ └── punycode@1.4.1 </tspan>
<tspan x="10" y="1802">  │ │ │ │ ├── tunnel-agent@0.6.0 </tspan>
<tspan x="10" y="1818">  │ │ │ │ └── uuid@3.0.1 </tspan>
<tspan x="10" y="1834">  │ │ │ ├─┬ single-line-log@1.1.2 </tspan>
<tspan x="10" y="1850">  │ │ │ │ └─┬ string-width@1.0.2 </tspan>
<tspan x="10" y="1866">  │ │ │ │   ├── code-point-at@1.1.0 </tspan>
<tspan x="10" y="1882">  │ │ │ │   └─┬ is-fullwidth-code-point@1.0.0 </tspan>
<tspan x="10" y="1898">  │ │ │ │     └── number-is-nan@1.0.1 </tspan>
<tspan x="10" y="1914">  │ │ │ └── throttleit@0.0.2 </tspan>
<tspan x="10" y="1930">  │ │ ├─┬ path-exists@2.1.0 </tspan>
<tspan x="10" y="1946">  │ │ │ └─┬ pinkie-promise@2.0.1 </tspan>
<tspan x="10" y="1962">  │ │ │   └── pinkie@2.0.4 </tspan>
<tspan x="10" y="1978">  │ │ ├─┬ rc@1.2.1 </tspan>
<tspan x="10" y="1994">  │ │ │ ├── ini@1.3.4 </tspan>
<tspan x="10" y="2010">  │ │ │ └── strip-json-comments@2.0.1 </tspan>
<tspan x="10" y="2026">  │ │ ├── semver@5.3.0 </tspan>
<tspan x="10" y="2042">  │ │ └─┬ sumchecker@1.3.1 </tspan>
<tspan x="10" y="2058">  │ │   └── es6-promise@4.1.0 </tspan>
<tspan x="10" y="2074">  │ └─┬ extract-zip@1.6.0 </tspan>
<tspan x="10" y="2090">  │   ├─┬ concat-stream@1.5.0 </tspan>
<tspan x="10" y="2106">  │   │ ├── inherits@2.0.3 </tspan>
<tspan x="10" y="2122">  │   │ ├─┬ readable-stream@2.0.6 </tspan>
<tspan x="10" y="2138">  │   │ │ ├── core-util-is@1.0.2 </tspan>
<tspan x="10" y="2154">  │   │ │ ├── isarray@1.0.0 </tspan>
<tspan x="10" y="2170">  │   │ │ ├── process-nextick-args@1.0.7 </tspan>
<tspan x="10" y="2186">  │   │ │ ├── string_decoder@0.10.31 </tspan>
<tspan x="10" y="2202">  │   │ │ └── util-deprecate@1.0.2 </tspan>
<tspan x="10" y="2218">  │   │ └── typedarray@0.0.6 </tspan>
<tspan x="10" y="2234">  │   ├── debug@0.7.4 </tspan>
<tspan x="10" y="2250">  │   ├─┬ mkdirp@0.5.0 </tspan>
<tspan x="10" y="2266">  │   │ └── minimist@0.0.8 </tspan>
<tspan x="10" y="2282">  │   └─┬ yauzl@2.4.1 </tspan>
<tspan x="10" y="2298">  │     └─┬ fd-slicer@1.0.1 </tspan>
<tspan x="10" y="2314">  │       └── pend@1.2.0 </tspan>
<tspan x="10" y="2330">  ├─┬ electron-recompile@1.0.16 </tspan>
<tspan x="10" y="2346">  │ ├── colors@1.1.2 </tspan>
<tspan x="10" y="2362">  │ └─┬ fs-extra@0.23.1 </tspan>
<tspan x="10" y="2378">  │   ├── graceful-fs@4.1.11 </tspan>
<tspan x="10" y="2394">  │   ├── jsonfile@2.4.0 </tspan>
<tspan x="10" y="2410">  │   ├── path-is-absolute@1.0.1 </tspan>
<tspan x="10" y="2426">  │   └─┬ rimraf@2.6.1 </tspan>
<tspan x="10" y="2442">  │     └─┬ glob@7.1.1 </tspan>
<tspan x="10" y="2458">  │       ├── fs.realpath@1.0.0 </tspan>
<tspan x="10" y="2474">  │       ├─┬ inflight@1.0.6 </tspan>
<tspan x="10" y="2490">  │       │ └── wrappy@1.0.2 </tspan>
<tspan x="10" y="2506">  │       ├─┬ minimatch@3.0.3 </tspan>
<tspan x="10" y="2522">  │       │ └─┬ brace-expansion@1.1.7 </tspan>
<tspan x="10" y="2538">  │       │   ├── balanced-match@0.4.2 </tspan>
<tspan x="10" y="2554">  │       │   └── concat-map@0.0.1 </tspan>
<tspan x="10" y="2570">  │       └── once@1.4.0 </tspan>
<tspan x="10" y="2586">  ├─┬ markdown@0.5.0 </tspan>
<tspan x="10" y="2602">  │ └─┬ nopt@2.1.2 </tspan>
<tspan x="10" y="2618">  │   └── abbrev@1.1.0 </tspan>
<tspan x="10" y="2634">  ├── nmp@1.0.3 </tspan>
<tspan x="10" y="2650">  ├── package.js@1.1.3 </tspan>
<tspan x="10" y="2666">  ├─┬ pretty-error@2.1.0 </tspan>
<tspan x="10" y="2682">  │ ├─┬ renderkid@2.0.1 </tspan>
<tspan x="10" y="2698">  │ │ ├─┬ css-select@1.2.0 </tspan>
<tspan x="10" y="2714">  │ │ │ ├── boolbase@1.0.0 </tspan>
<tspan x="10" y="2730">  │ │ │ ├── css-what@2.1.0 </tspan>
<tspan x="10" y="2746">  │ │ │ ├─┬ domutils@1.5.1 </tspan>
<tspan x="10" y="2762">  │ │ │ │ └─┬ dom-serializer@0.1.0 </tspan>
<tspan x="10" y="2778">  │ │ │ │   ├── domelementtype@1.1.3 </tspan>
<tspan x="10" y="2794">  │ │ │ │   └── entities@1.1.1 </tspan>
<tspan x="10" y="2810">  │ │ │ └── nth-check@1.0.1 </tspan>
<tspan x="10" y="2826">  │ │ ├─┬ dom-converter@0.1.4 </tspan>
<tspan x="10" y="2842">  │ │ │ └── utila@0.3.3 </tspan>
<tspan x="10" y="2858">  │ │ ├─┬ htmlparser2@3.3.0 </tspan>
<tspan x="10" y="2874">  │ │ │ ├── domelementtype@1.3.0 </tspan>
<tspan x="10" y="2890">  │ │ │ ├── domhandler@2.1.0 </tspan>
<tspan x="10" y="2906">  │ │ │ ├── domutils@1.1.6 </tspan>
<tspan x="10" y="2922">  │ │ │ └─┬ readable-stream@1.0.34 </tspan>
<tspan x="10" y="2938">  │ │ │   └── isarray@0.0.1 </tspan>
<tspan x="10" y="2954">  │ │ ├─┬ strip-ansi@3.0.1 </tspan>
<tspan x="10" y="2970">  │ │ │ └── ansi-regex@2.1.1 </tspan>
<tspan x="10" y="2986">  │ │ └── utila@0.3.3 </tspan>
<tspan x="10" y="3002">  │ └── utila@0.4.0 </tspan>
<tspan x="10" y="3018">  └─┬ syntax-error@1.3.0 </tspan>
<tspan x="10" y="3034">    └── acorn@4.0.11</tspan>
</text>
</svg>
